<svg width="367" height="60" viewBox="0 0 367 60" fill="none" xmlns="http://www.w3.org/2000/svg">
<path d="M74.704 35.76L74.416 34.08C74.416 33.76 74.56 33.52 74.848 33.36C75.136 33.168 75.392 33.392 75.616 34.032C75.712 34.352 75.76 34.688 75.76 35.04C75.76 36.032 75.36 37.328 74.56 38.928C73.536 40.944 72.208 41.968 70.576 42C70.224 42 69.664 41.776 68.896 41.328C68.16 40.848 67.664 40.448 67.408 40.128C66.224 38.72 65.424 35.92 65.008 31.728C64.816 29.904 64.64 28.464 64.48 27.408C60.864 28.048 58.32 29.232 56.848 30.96C56.72 31.12 56.56 31.184 56.368 31.152C56.208 31.088 56.096 30.992 56.032 30.864C56 30.704 56.048 30.544 56.176 30.384C58.512 27.792 61.216 25.968 64.288 24.912C64.256 24.368 64.24 23.552 64.24 22.464C64.24 21.376 64.448 19.792 64.864 17.712C65.312 15.6 65.536 14.224 65.536 13.584C65.536 12.912 65.536 12.48 65.536 12.288C65.536 12.096 65.6 11.952 65.728 11.856C65.888 11.76 66.048 11.76 66.208 11.856C66.368 11.92 66.448 12.064 66.448 12.288C66.8 16.096 66.976 18.944 66.976 20.832C66.976 22.72 67.008 23.888 67.072 24.336C67.424 24.24 67.744 24.24 68.032 24.336C68.768 24.336 69.568 24.528 70.432 24.912C71.68 25.456 72.304 26.192 72.304 27.12C72.304 27.632 72 28.016 71.392 28.272C71.104 28.368 70.784 28.416 70.432 28.416C70.08 28.416 69.776 28.144 69.52 27.6C68.848 27.248 68.336 27.072 67.984 27.072C67.632 27.072 67.376 27.088 67.216 27.12C67.312 27.536 67.408 28.72 67.504 30.672C67.76 35.024 68.32 37.648 69.184 38.544C69.312 38.704 69.536 38.896 69.856 39.12C70.208 39.344 70.448 39.472 70.576 39.504C71.536 39.504 72.464 39.088 73.36 38.256C74.256 37.424 74.704 36.592 74.704 35.76ZM47.2 43.152C46.816 43.152 46.432 43.056 46.048 42.864C45.696 42.672 45.456 42.56 45.328 42.528C45.2 42.496 44.992 42.448 44.704 42.384C44.096 42.224 43.632 42 43.312 41.712C41.68 40.208 40.864 38.208 40.864 35.712C40.864 34.528 41.072 33.52 41.488 32.688C41.648 32.368 42.176 31.536 43.072 30.192C43.552 29.392 44.64 28.992 46.336 28.992C47.008 28.992 47.632 29.328 48.208 30C48.784 30.64 49.072 31.392 49.072 32.256C49.072 33.824 48.416 34.928 47.104 35.568C46.944 35.632 46.8 35.616 46.672 35.52C46.544 35.424 46.48 35.296 46.48 35.136C46.48 34.944 46.56 34.816 46.72 34.752V34.704C47.648 34.256 48.112 33.376 48.112 32.064C48.112 31.584 47.92 31.12 47.536 30.672C47.184 30.224 46.784 30 46.336 30C45.184 30 44.448 30.256 44.128 30.768C43.488 31.696 43.168 32.88 43.168 34.32C43.168 34.736 43.184 35.2 43.216 35.712C43.216 37.664 43.344 38.896 43.6 39.408C43.888 39.888 44.112 40.208 44.272 40.368C44.464 40.528 44.608 40.656 44.704 40.752C45.056 41.104 45.248 41.296 45.28 41.328C45.312 41.328 45.36 41.36 45.424 41.424C45.52 41.456 45.584 41.488 45.616 41.52C45.648 41.52 45.712 41.552 45.808 41.616C45.936 41.648 46.032 41.68 46.096 41.712C46.352 41.84 46.64 41.904 46.96 41.904C47.28 41.904 47.552 41.84 47.776 41.712C48.192 41.456 48.608 41.12 49.024 40.704C50.208 39.776 51.04 38.512 51.52 36.912C51.744 36.08 52.336 34.384 53.296 31.824C53.552 31.024 53.744 29.872 53.872 28.368C54 26.832 54.144 25.76 54.304 25.152C54.496 24.544 54.704 23.76 54.928 22.8C55.408 20.848 56.08 19.024 56.944 17.328C57.808 15.632 58.688 14.304 59.584 13.344C60.512 12.352 62.016 11.328 64.096 10.272C64.256 10.176 64.416 10.128 64.576 10.128C64.736 10.128 64.944 10.224 65.2 10.416C65.456 10.608 65.584 10.88 65.584 11.232C65.584 11.552 65.392 11.824 65.008 12.048C64.336 12.368 63.264 13.296 61.792 14.832C60.352 16.336 59.232 17.888 58.432 19.488C57.664 21.088 57.088 22.528 56.704 23.808C56.352 25.088 56.128 25.84 56.032 26.064C55.904 26.448 55.808 26.88 55.744 27.36C55.68 27.84 55.568 28.336 55.408 28.848C55.248 29.36 55.04 29.936 54.784 30.576C54.528 31.184 54.32 31.712 54.16 32.16C54.032 32.608 53.872 33.456 53.68 34.704C53.52 35.92 53.376 36.704 53.248 37.056C53.152 37.376 53.04 37.744 52.912 38.16C52.816 38.576 52.752 38.832 52.72 38.928C52.688 39.024 52.608 39.248 52.48 39.6C52.384 39.952 52.304 40.208 52.24 40.368C52.176 40.496 52.08 40.704 51.952 40.992C51.824 41.248 51.696 41.456 51.568 41.616C51.152 42.128 50.848 42.464 50.656 42.624C50.24 42.976 49.088 43.152 47.2 43.152ZM77.4524 37.872C77.3884 38.032 77.2764 38.112 77.1164 38.112C76.9564 38.112 76.8284 38.064 76.7324 37.968C76.6364 37.84 76.5884 37.712 76.5884 37.584C76.5884 37.424 77.1644 36.144 78.3164 33.744C78.1564 31.888 78.2524 28.832 78.6044 24.576C78.9564 20.288 79.1484 18 79.1804 17.712C79.4684 14.48 80.1244 11.488 81.1484 8.736C81.5964 7.552 82.2684 6.96 83.1644 6.96C84.0924 6.992 84.7964 7.824 85.2764 9.456C85.7884 11.056 86.0444 12.56 86.0444 13.968C86.0444 19.344 84.2524 25.168 80.6684 31.44C80.7004 33.456 80.8924 35.76 81.2444 38.352C81.5964 40.944 82.0604 42.8 82.6364 43.92C82.8604 44.496 82.9884 44.816 83.0204 44.88C83.0844 44.944 83.1164 45.008 83.1164 45.072C83.1484 45.136 83.1644 45.184 83.1644 45.216C83.1644 45.28 83.1804 45.312 83.2124 45.312C83.7244 45.312 84.1724 45.072 84.5564 44.592C84.9724 44.112 85.2764 43.504 85.4684 42.768C85.7884 41.36 85.9484 40.144 85.9484 39.12C85.9484 38.928 86.0284 38.8 86.1884 38.736C86.3484 38.64 86.5084 38.64 86.6684 38.736C86.8284 38.8 86.9244 38.928 86.9564 39.12C86.9564 41.392 86.4444 43.392 85.4204 45.12C84.8124 46.144 84.0764 46.656 83.2124 46.656C82.3804 46.656 81.5644 45.856 80.7644 44.256C79.9644 42.656 79.4524 41.328 79.2284 40.272C78.8764 37.808 78.6524 36.192 78.5564 35.424C78.1084 36.32 77.7404 37.136 77.4524 37.872ZM83.1644 9.072L83.2124 9.552C83.1484 9.744 83.0684 10.048 82.9724 10.464C82.9084 10.848 82.8444 11.104 82.7804 11.232C82.1724 12.864 81.7724 15.072 81.5804 17.856C81.5164 18.656 81.4044 19.856 81.2444 21.456C80.9244 24.752 80.7324 27.456 80.6684 29.568L80.7644 29.328C83.6124 24.08 85.0364 18.912 85.0364 13.824C85.0364 12.832 84.8924 11.776 84.6044 10.656C84.3164 9.536 83.8524 8.976 83.2124 8.976C83.1804 9.008 83.1644 9.04 83.1644 9.072ZM103.134 36.288C101.95 36.288 101.406 35.488 101.502 33.888C101.502 33.696 101.582 33.568 101.742 33.504C101.902 33.44 102.046 33.456 102.174 33.552C102.334 33.648 102.414 33.776 102.414 33.936C102.414 34.096 102.414 34.24 102.414 34.368C102.414 35.04 102.638 35.392 103.086 35.424C103.502 35.424 103.886 35.104 104.238 34.464C104.59 33.792 104.782 33.184 104.814 32.64C104.846 32.096 104.718 31.664 104.43 31.344C104.174 31.024 103.87 30.864 103.518 30.864C102.238 30.896 101.182 31.568 100.35 32.88C98.6219 35.6 98.6059 38.384 100.302 41.232C100.622 41.68 101.118 42.112 101.79 42.528C102.494 42.976 103.07 43.2 103.518 43.2C103.966 43.2 104.35 42.992 104.67 42.576C105.598 42 106.398 41.088 107.07 39.84C107.774 38.592 108.254 37.52 108.51 36.624C109.438 33.36 109.95 30.688 110.046 28.608C108.862 28.864 108.142 29.584 107.886 30.768C107.854 30.96 107.742 31.072 107.55 31.104C107.39 31.136 107.246 31.104 107.118 31.008C106.99 30.88 106.942 30.72 106.974 30.528C107.39 28.8 108.414 27.76 110.046 27.408C110.046 25.904 109.982 24.512 109.854 23.232C109.726 21.952 109.646 20.768 109.614 19.68C109.582 18.592 109.486 17.6 109.326 16.704C109.198 15.776 108.894 14.752 108.414 13.632C107.966 12.512 107.406 11.952 106.734 11.952C105.454 11.952 104.222 12.592 103.038 13.872C101.854 15.152 101.262 16.416 101.262 17.664C101.262 17.696 101.262 17.936 101.262 18.384C101.262 18.8 101.278 19.232 101.31 19.68C101.374 20.128 101.566 20.608 101.886 21.12C102.238 21.6 102.798 21.84 103.566 21.84C104.334 21.84 104.814 21.552 105.006 20.976C105.038 20.912 105.102 20.832 105.198 20.736C105.326 20.608 105.406 20.512 105.438 20.448C105.438 20.032 105.326 19.696 105.102 19.44C104.878 19.152 104.798 18.944 104.862 18.816C104.958 18.656 105.086 18.576 105.246 18.576C105.406 18.544 105.534 18.592 105.63 18.72C106.142 19.392 106.398 20 106.398 20.544C106.43 21.056 106.414 21.392 106.35 21.552C105.87 22.672 104.878 23.232 103.374 23.232C101.006 23.2 99.8219 21.36 99.8219 17.712C99.8219 16.528 100.35 15.312 101.406 14.064C102.494 12.816 103.582 11.952 104.67 11.472C105.79 10.992 106.478 10.752 106.734 10.752C107.726 10.752 108.83 11.456 110.046 12.864C111.262 14.24 111.966 15.456 112.158 16.512C112.446 18.272 112.59 19.552 112.59 20.352C112.59 21.952 112.414 24.256 112.062 27.264C114.27 27.264 116.014 27.28 117.294 27.312C119.438 26.96 121.278 26.576 122.814 26.16C122.974 24.368 123.07 22.992 123.102 22.032C123.166 21.072 123.214 20.272 123.246 19.632C123.31 18.96 123.438 18.128 123.63 17.136C123.822 16.144 124.062 15.344 124.35 14.736C124.638 14.096 125.054 13.52 125.598 13.008C126.142 12.464 126.638 12.144 127.086 12.048C127.758 11.952 128.094 12.096 128.094 12.48C128.094 12.768 127.966 12.928 127.71 12.96C127.006 13.12 126.414 13.536 125.934 14.208C125.486 14.848 125.182 15.616 125.022 16.512C124.734 18.144 124.59 19.696 124.59 21.168L124.638 23.136C124.638 23.648 124.542 24.448 124.35 25.536C125.374 25.056 126.094 24.432 126.51 23.664C126.638 23.504 126.782 23.424 126.942 23.424C127.102 23.424 127.23 23.504 127.326 23.664C127.422 23.792 127.422 23.936 127.326 24.096C126.494 25.536 125.47 26.64 124.254 27.408V28.752C124.254 32.016 124.894 36.128 126.174 41.088C126.558 42.368 126.91 43.168 127.23 43.488C127.582 43.808 127.758 44.112 127.758 44.4C127.758 44.72 127.598 45.024 127.278 45.312C126.99 45.632 126.702 45.792 126.414 45.792C126.126 45.792 125.822 45.632 125.502 45.312C125.182 44.992 124.894 44.608 124.638 44.16C124.382 43.712 124.158 43.248 123.966 42.768C123.806 42.32 123.646 41.76 123.486 41.088C123.326 40.384 123.198 39.792 123.102 39.312C123.006 38.8 122.926 38.144 122.862 37.344C122.798 36.512 122.75 35.872 122.718 35.424C122.686 34.976 122.654 34.336 122.622 33.504C122.622 32.64 122.622 32.048 122.622 31.728V28.416C121.086 29.152 119.31 29.632 117.294 29.856C116.558 29.856 115.598 29.664 114.414 29.28C113.262 28.864 112.398 28.624 111.822 28.56C111.598 30.384 111.294 32.112 110.91 33.744C110.558 35.376 110.35 36.352 110.286 36.672C110.222 36.96 110.078 37.488 109.854 38.256C109.662 39.024 109.47 39.6 109.278 39.984C109.118 40.336 108.878 40.816 108.558 41.424C108.27 42.032 107.966 42.512 107.646 42.864C106.27 44.368 104.942 45.12 103.662 45.12C102.958 45.12 102.206 44.752 101.406 44.016C99.2299 42.064 98.1419 39.792 98.1419 37.2C98.1419 37.104 98.1419 37.008 98.1419 36.912C98.1419 35.312 98.6219 33.76 99.5819 32.256C100.542 30.72 101.822 29.952 103.422 29.952C103.454 29.952 103.486 29.952 103.518 29.952C104.158 29.952 104.686 30.224 105.102 30.768C105.55 31.28 105.774 31.904 105.774 32.64C105.774 33.344 105.534 34.128 105.054 34.992C104.606 35.856 103.998 36.288 103.23 36.288C103.198 36.288 103.166 36.288 103.134 36.288ZM139.309 28.944C140.109 28.944 140.765 29.568 141.277 30.816C141.821 32.064 142.093 33.328 142.093 34.608C142.093 35.888 141.677 37.344 140.845 38.976C140.013 40.576 139.005 41.68 137.821 42.288C136.797 42.704 136.109 42.912 135.757 42.912C134.445 42.848 133.117 42.304 131.773 41.28C130.909 40.608 130.189 39.648 129.613 38.4C129.037 37.12 128.749 36.032 128.749 35.136C128.749 34.24 128.893 33.008 129.181 31.44C129.501 29.84 130.349 28.256 131.725 26.688C133.037 25.28 134.413 24.576 135.853 24.576C136.717 24.576 137.437 24.816 138.013 25.296C138.621 25.744 138.925 26.32 138.925 27.024C138.925 27.728 138.765 28.384 138.445 28.992C138.157 29.6 137.773 29.904 137.293 29.904C137.261 29.904 137.229 29.904 137.197 29.904C136.397 29.904 135.645 29.312 134.941 28.128C134.845 28 134.829 27.872 134.893 27.744C134.989 27.616 135.101 27.552 135.229 27.552C135.389 27.52 135.517 27.568 135.613 27.696C135.741 27.888 135.981 28.144 136.333 28.464C136.717 28.784 137.021 28.944 137.245 28.944C137.629 28.944 137.885 28.384 138.013 27.264C138.013 26.56 137.293 26.208 135.853 26.208C135.565 26.208 135.325 26.24 135.133 26.304C134.973 26.368 134.845 26.416 134.749 26.448C134.653 26.48 134.541 26.544 134.413 26.64C134.317 26.736 134.237 26.816 134.173 26.88C134.109 26.912 134.013 26.992 133.885 27.12C133.789 27.216 133.725 27.296 133.693 27.36C133.533 27.552 133.277 27.84 132.925 28.224C132.605 28.608 132.349 29.056 132.157 29.568C131.997 30.08 131.885 30.768 131.821 31.632C131.789 32.464 131.725 33.136 131.629 33.648C131.565 34.16 131.533 34.512 131.533 34.704V36.24C131.533 37.424 131.597 38.16 131.725 38.448C131.853 38.736 131.965 38.96 132.061 39.12C132.253 39.504 132.493 39.808 132.781 40.032C134.093 40.96 135.101 41.424 135.805 41.424C136.541 41.424 137.325 41.104 138.157 40.464C139.021 39.792 139.661 39.072 140.077 38.304C140.813 36.832 141.181 35.408 141.181 34.032C141.181 32.624 140.781 31.536 139.981 30.768C139.533 30.48 139.277 30.576 139.213 31.056C139.213 31.152 139.293 31.376 139.453 31.728C139.613 32.048 139.597 32.304 139.405 32.496C139.245 32.688 139.021 32.784 138.733 32.784C138.477 32.752 138.301 32.656 138.205 32.496C138.141 32.304 138.029 32.064 137.869 31.776C137.741 31.488 137.677 31.2 137.677 30.912C137.677 30.624 137.869 30.224 138.253 29.712C138.669 29.2 139.021 28.944 139.309 28.944ZM145.801 36.768L145.849 35.232C145.849 29.6 145.465 26.64 144.697 26.352C144.441 26.288 144.313 26.16 144.313 25.968C144.313 25.744 144.377 25.568 144.505 25.44C144.633 25.312 144.793 25.28 144.985 25.344C145.561 25.536 146.105 26 146.617 26.736C147.449 28.016 147.945 29.776 148.105 32.016C149.129 28.336 150.185 25.52 151.273 23.568C152.681 21.2 154.185 20.016 155.785 20.016C156.809 20.048 157.657 20.608 158.329 21.696C159.001 22.752 159.337 23.904 159.337 25.152C159.337 26.4 158.873 27.984 157.945 29.904C157.017 31.792 155.977 32.736 154.825 32.736C154.313 32.736 153.833 32.288 153.385 31.392C152.969 30.464 152.761 29.584 152.761 28.752C152.761 27.888 153.065 26.88 153.673 25.728C153.769 25.536 153.897 25.44 154.057 25.44C154.249 25.44 154.393 25.52 154.489 25.68C154.585 25.808 154.537 26.048 154.345 26.4C154.185 26.752 154.105 27.664 154.105 29.136C154.105 30.576 154.329 31.296 154.777 31.296C155.641 31.296 156.265 30.592 156.649 29.184C157.033 27.776 157.225 26.304 157.225 24.768C157.225 23.2 157.065 22.208 156.745 21.792C156.489 21.472 156.153 21.312 155.737 21.312C153.561 21.312 151.369 25.072 149.161 32.592C149.001 33.2 148.905 34.064 148.873 35.184C148.873 36.272 148.825 37.072 148.729 37.584C148.825 38.384 148.873 39.216 148.873 40.08C148.873 40.944 148.713 41.712 148.393 42.384C147.977 43.312 147.433 43.776 146.761 43.776C146.441 43.776 146.185 43.616 145.993 43.296C145.801 43.008 145.705 42.704 145.705 42.384L145.897 41.184C146.153 40.8 146.201 40.16 146.041 39.264C145.881 38.24 145.801 37.408 145.801 36.768ZM165.021 30.384L165.069 28.272C165.069 26.608 164.829 25.536 164.349 25.056C164.093 24.8 163.741 24.672 163.293 24.672C162.429 24.672 161.581 25.168 160.749 26.16C159.917 27.12 159.501 28.048 159.501 28.944C159.501 29.328 159.613 29.84 159.837 30.48C160.061 31.088 160.365 31.392 160.749 31.392C161.165 31.36 161.549 31.184 161.901 30.864C162.253 30.512 162.429 30.128 162.429 29.712C162.429 29.264 162.365 28.976 162.237 28.848C162.141 28.72 161.933 28.672 161.613 28.704C161.325 28.704 161.133 28.64 161.037 28.512C160.973 28.352 160.973 28.192 161.037 28.032C161.101 27.872 161.229 27.792 161.421 27.792V27.744C161.517 27.744 161.757 27.744 162.141 27.744C162.557 27.744 162.893 27.872 163.149 28.128C163.405 28.352 163.533 28.848 163.533 29.616C163.533 30.352 163.245 30.992 162.669 31.536C162.093 32.048 161.405 32.336 160.605 32.4C160.125 32.4 159.613 31.952 159.069 31.056C158.557 30.128 158.301 29.408 158.301 28.896C158.333 27.68 158.877 26.432 159.933 25.152C161.021 23.84 162.093 23.184 163.149 23.184C164.237 23.184 165.133 23.632 165.837 24.528C166.989 25.968 167.613 27.904 167.709 30.336V32.256C169.309 28.48 170.253 26.384 170.541 25.968C171.821 24.048 173.149 23.088 174.525 23.088C175.197 23.088 175.789 23.52 176.301 24.384C176.845 25.216 177.117 25.968 177.117 26.64C177.117 28.112 176.973 29.216 176.685 29.952C175.757 32.192 175.293 34.496 175.293 36.864C175.293 39.68 175.773 42.048 176.733 43.968C177.117 43.968 177.517 43.84 177.933 43.584C178.381 43.36 178.669 43.296 178.797 43.392C178.957 43.488 179.037 43.616 179.037 43.776C179.037 43.936 178.957 44.064 178.797 44.16C177.901 44.704 177.165 44.976 176.589 44.976C176.013 45.008 175.485 44.496 175.005 43.44C174.941 43.28 174.797 42.96 174.573 42.48C174.349 42.032 174.173 41.664 174.045 41.376C173.949 41.056 173.821 40.688 173.661 40.272C173.341 39.376 173.181 38.64 173.181 38.064C173.181 37.488 173.181 37.056 173.181 36.768C173.181 33.376 173.565 30.784 174.333 28.992C174.813 27.872 175.037 27.088 175.005 26.64C175.005 25.424 174.845 24.816 174.525 24.816C173.437 24.816 172.445 25.584 171.549 27.12C170.877 28.24 170.253 29.408 169.677 30.624C168.621 32.96 167.565 36.688 166.509 41.808C166.477 42 166.301 42.112 165.981 42.144C165.693 42.176 165.405 42.128 165.117 42C164.861 41.872 164.733 41.712 164.733 41.52C164.925 39.44 165.021 37.312 165.021 35.136C165.021 32.928 165.021 31.344 165.021 30.384ZM189.793 28.944C190.593 28.944 191.249 29.568 191.761 30.816C192.305 32.064 192.577 33.328 192.577 34.608C192.577 35.888 192.161 37.344 191.329 38.976C190.497 40.576 189.489 41.68 188.305 42.288C187.281 42.704 186.593 42.912 186.241 42.912C184.929 42.848 183.601 42.304 182.257 41.28C181.393 40.608 180.673 39.648 180.097 38.4C179.521 37.12 179.233 36.032 179.233 35.136C179.233 34.24 179.377 33.008 179.665 31.44C179.985 29.84 180.833 28.256 182.209 26.688C183.521 25.28 184.897 24.576 186.337 24.576C187.201 24.576 187.921 24.816 188.497 25.296C189.105 25.744 189.409 26.32 189.409 27.024C189.409 27.728 189.249 28.384 188.929 28.992C188.641 29.6 188.257 29.904 187.777 29.904C187.745 29.904 187.713 29.904 187.681 29.904C186.881 29.904 186.129 29.312 185.425 28.128C185.329 28 185.313 27.872 185.377 27.744C185.473 27.616 185.585 27.552 185.713 27.552C185.873 27.52 186.001 27.568 186.097 27.696C186.225 27.888 186.465 28.144 186.817 28.464C187.201 28.784 187.505 28.944 187.729 28.944C188.113 28.944 188.369 28.384 188.497 27.264C188.497 26.56 187.777 26.208 186.337 26.208C186.049 26.208 185.809 26.24 185.617 26.304C185.457 26.368 185.329 26.416 185.233 26.448C185.137 26.48 185.025 26.544 184.897 26.64C184.801 26.736 184.721 26.816 184.657 26.88C184.593 26.912 184.497 26.992 184.369 27.12C184.273 27.216 184.209 27.296 184.177 27.36C184.017 27.552 183.761 27.84 183.409 28.224C183.089 28.608 182.833 29.056 182.641 29.568C182.481 30.08 182.369 30.768 182.305 31.632C182.273 32.464 182.209 33.136 182.113 33.648C182.049 34.16 182.017 34.512 182.017 34.704V36.24C182.017 37.424 182.081 38.16 182.209 38.448C182.337 38.736 182.449 38.96 182.545 39.12C182.737 39.504 182.977 39.808 183.265 40.032C184.577 40.96 185.585 41.424 186.289 41.424C187.025 41.424 187.809 41.104 188.641 40.464C189.505 39.792 190.145 39.072 190.561 38.304C191.297 36.832 191.665 35.408 191.665 34.032C191.665 32.624 191.265 31.536 190.465 30.768C190.017 30.48 189.761 30.576 189.697 31.056C189.697 31.152 189.777 31.376 189.937 31.728C190.097 32.048 190.081 32.304 189.889 32.496C189.729 32.688 189.505 32.784 189.217 32.784C188.961 32.752 188.785 32.656 188.689 32.496C188.625 32.304 188.513 32.064 188.353 31.776C188.225 31.488 188.161 31.2 188.161 30.912C188.161 30.624 188.353 30.224 188.737 29.712C189.153 29.2 189.505 28.944 189.793 28.944ZM222.739 30.096L223.507 29.904C224.979 29.904 226.323 29.264 227.539 27.984C228.755 26.672 229.651 25.168 230.227 23.472C230.835 21.776 231.139 20.144 231.139 18.576C231.139 15.056 229.699 12.368 226.819 10.512C226.659 10.416 226.339 10.208 225.859 9.888C225.379 9.536 225.027 9.296 224.803 9.168C224.067 8.752 223.331 8.544 222.595 8.544C219.843 8.544 216.995 9.648 214.051 11.856C213.891 12.656 213.811 13.552 213.811 14.544C213.811 15.536 213.875 16.448 214.003 17.28C214.163 18.08 214.355 18.96 214.579 19.92C214.835 20.88 215.011 21.632 215.107 22.176C215.203 22.688 215.459 23.776 215.875 25.44C216.323 27.104 216.579 28.448 216.643 29.472V34.704C216.643 36.656 216.083 39.072 214.963 41.952C214.195 44.128 213.139 45.216 211.795 45.216C210.195 45.216 208.883 43.44 207.859 39.888C207.667 39.088 207.571 38.048 207.571 36.768C207.603 35.456 207.859 34.192 208.339 32.976C208.819 31.76 209.459 31.136 210.259 31.104C210.707 31.104 210.995 31.2 211.123 31.392C211.283 31.584 211.395 31.728 211.459 31.824C211.555 31.92 211.635 32.08 211.699 32.304C211.795 32.528 211.843 32.688 211.843 32.784C211.875 32.848 211.923 33.024 211.987 33.312C212.051 33.568 212.083 33.76 212.083 33.888C212.115 34.016 212.051 34.128 211.891 34.224C211.763 34.32 211.619 34.336 211.459 34.272C211.299 34.208 211.203 34.08 211.171 33.888C210.915 32.672 210.627 32.064 210.307 32.064C209.667 32.096 209.203 32.592 208.915 33.552C208.659 34.48 208.531 35.536 208.531 36.72C208.531 37.872 208.819 39.216 209.395 40.752C210.003 42.288 210.803 43.056 211.795 43.056C211.923 43.056 212.083 42.592 212.275 41.664C212.339 41.568 212.387 41.44 212.419 41.28C212.451 41.12 212.515 40.912 212.611 40.656C212.739 40.368 212.867 39.92 212.995 39.312C213.155 38.704 213.267 38.192 213.331 37.776C213.427 37.328 213.523 36.736 213.619 36C213.747 35.232 213.843 34.672 213.907 34.32C213.907 28.816 213.731 25.184 213.379 23.424C213.027 21.664 212.851 20.032 212.851 18.528C212.851 16.096 212.899 14.128 212.995 12.624C210.755 14.512 209.315 16.592 208.675 18.864C208.643 19.024 208.723 19.536 208.915 20.4C208.979 20.4 209.059 20.4 209.155 20.4C209.763 20.4 210.275 20.032 210.691 19.296C210.755 19.136 210.867 19.056 211.027 19.056C211.219 19.056 211.363 19.12 211.459 19.248C211.555 19.376 211.555 19.52 211.459 19.68C211.171 20.352 210.771 20.88 210.259 21.264C209.747 21.616 209.267 21.792 208.819 21.792L208.435 21.744C207.891 21.616 207.619 21.088 207.619 20.16C207.619 18.304 208.403 16.304 209.971 14.16C211.539 11.984 213.539 10.192 215.971 8.784C218.403 7.344 220.595 6.624 222.547 6.624C224.531 6.624 226.419 7.2 228.211 8.352C232.051 10.816 233.971 14.224 233.971 18.576C233.971 20.432 233.523 22.4 232.627 24.48C231.731 26.56 230.451 28.368 228.787 29.904C227.155 31.408 225.395 32.16 223.507 32.16H222.835C222.035 32.16 221.171 31.776 220.243 31.008C219.347 30.24 218.787 29.44 218.563 28.608C218.531 28.544 218.435 28.288 218.275 27.84C218.147 27.36 218.083 26.96 218.083 26.64C218.083 25.936 218.403 25.312 219.043 24.768C219.715 24.192 220.387 23.904 221.059 23.904C221.411 23.904 221.619 23.984 221.683 24.144C221.779 24.304 221.763 24.464 221.635 24.624C221.539 24.784 221.411 24.864 221.251 24.864C221.123 24.864 220.931 24.864 220.675 24.864C220.451 24.864 220.115 25.056 219.667 25.44C219.251 25.824 219.043 26.256 219.043 26.736C219.075 27.76 219.427 28.576 220.099 29.184C220.803 29.792 221.683 30.096 222.739 30.096ZM240.812 20.592C240.812 21.232 240.653 21.776 240.333 22.224C240.013 22.64 239.581 22.848 239.037 22.848C238.205 22.848 237.789 22.048 237.789 20.448C237.789 19.872 237.885 19.488 238.077 19.296C238.301 19.104 238.701 19.008 239.277 19.008C240.301 19.008 240.812 19.536 240.812 20.592ZM243.501 42.864C243.501 43.312 243.181 43.808 242.541 44.352C241.933 44.928 241.293 45.216 240.621 45.216C239.981 45.216 239.229 44.736 238.365 43.776C237.501 42.816 237.069 41.76 237.069 40.608C237.069 39.456 237.149 38.432 237.309 37.536C237.469 36.608 237.581 35.744 237.645 34.944C237.741 34.144 237.821 33.552 237.885 33.168C237.949 32.784 237.949 32.352 237.885 31.872C237.853 31.36 237.837 31.024 237.837 30.864C237.837 30.704 237.837 30.432 237.837 30.048C237.837 29.632 237.741 29.2 237.549 28.752C237.229 28.432 237.165 28.032 237.357 27.552C237.549 27.04 237.901 26.784 238.413 26.784C238.445 26.784 238.461 26.768 238.461 26.736V26.688C238.557 26.688 238.653 26.688 238.749 26.688C239.965 26.688 240.573 27.76 240.573 29.904C240.573 31.632 240.397 33.168 240.045 34.512C239.341 36.976 238.989 39.12 238.989 40.944C238.989 41.648 239.165 42.384 239.517 43.152C239.901 43.92 240.365 44.304 240.909 44.304C241.133 44.304 241.533 43.984 242.109 43.344C242.717 42.736 243.101 42.432 243.261 42.432C243.421 42.432 243.501 42.56 243.501 42.816V42.864ZM249.537 25.584L254.241 26.016C254.625 26.016 255.137 25.936 255.777 25.776C256.545 25.584 257.009 25.488 257.169 25.488C257.457 25.488 257.649 25.712 257.745 26.16C257.873 26.576 257.745 26.848 257.361 26.976C257.009 27.104 256.577 27.536 256.065 28.272C255.553 28.976 255.185 29.408 254.961 29.568C252.849 31.328 250.577 34.224 248.145 38.256H248.865C249.537 38.256 250.417 38.448 251.505 38.832C252.625 39.184 253.457 39.36 254.001 39.36C254.897 39.36 255.713 38.816 256.449 37.728C257.217 36.64 257.601 35.696 257.601 34.896C257.601 34.096 257.553 33.6 257.457 33.408C257.297 33.056 256.801 32.88 255.969 32.88C255.649 32.88 255.233 33.2 254.721 33.84C254.209 34.448 253.953 35.008 253.953 35.52C253.953 36.032 254.273 36.288 254.913 36.288C255.105 36.288 255.233 36.368 255.297 36.528C255.361 36.656 255.361 36.8 255.297 36.96C255.233 37.088 255.025 37.152 254.673 37.152C254.321 37.152 253.905 37.024 253.425 36.768C252.977 36.48 252.753 36.016 252.753 35.376C252.753 34.704 253.105 33.92 253.809 33.024C254.545 32.128 255.265 31.68 255.969 31.68C256.257 31.68 256.657 31.776 257.169 31.968C258.385 32.192 258.993 33.152 258.993 34.848C258.993 36 258.465 37.328 257.409 38.832C256.385 40.336 255.249 41.088 254.001 41.088C253.393 41.088 252.529 40.928 251.409 40.608C250.289 40.256 249.489 40.08 249.009 40.08C248.529 40.08 248.145 40.144 247.857 40.272C247.569 40.368 247.249 40.528 246.897 40.752C246.353 41.072 245.969 41.232 245.745 41.232C245.553 41.232 245.249 40.992 244.833 40.512C244.417 40.032 244.209 39.712 244.209 39.552C244.209 39.36 244.225 39.232 244.257 39.168C247.489 33.664 250.433 29.776 253.089 27.504L249.729 27.024C249.409 26.8 248.865 26.816 248.097 27.072C247.329 27.328 246.865 27.536 246.705 27.696C246.577 27.824 246.433 27.856 246.273 27.792C246.113 27.728 246.017 27.616 245.985 27.456C245.953 27.296 246.001 27.152 246.129 27.024V27.072C246.481 26.784 246.993 26.464 247.665 26.112C248.337 25.76 248.785 25.584 249.009 25.584C249.265 25.584 249.441 25.584 249.537 25.584ZM266.178 25.584L270.882 26.016C271.266 26.016 271.778 25.936 272.418 25.776C273.186 25.584 273.65 25.488 273.81 25.488C274.098 25.488 274.29 25.712 274.386 26.16C274.514 26.576 274.386 26.848 274.002 26.976C273.65 27.104 273.218 27.536 272.706 28.272C272.194 28.976 271.826 29.408 271.602 29.568C269.49 31.328 267.218 34.224 264.786 38.256H265.506C266.178 38.256 267.058 38.448 268.146 38.832C269.266 39.184 270.098 39.36 270.642 39.36C271.538 39.36 272.354 38.816 273.09 37.728C273.858 36.64 274.242 35.696 274.242 34.896C274.242 34.096 274.194 33.6 274.098 33.408C273.938 33.056 273.442 32.88 272.609 32.88C272.29 32.88 271.874 33.2 271.362 33.84C270.85 34.448 270.594 35.008 270.594 35.52C270.594 36.032 270.914 36.288 271.554 36.288C271.746 36.288 271.874 36.368 271.938 36.528C272.002 36.656 272.002 36.8 271.938 36.96C271.874 37.088 271.666 37.152 271.314 37.152C270.962 37.152 270.546 37.024 270.066 36.768C269.618 36.48 269.394 36.016 269.394 35.376C269.394 34.704 269.746 33.92 270.45 33.024C271.186 32.128 271.906 31.68 272.609 31.68C272.898 31.68 273.298 31.776 273.81 31.968C275.026 32.192 275.634 33.152 275.634 34.848C275.634 36 275.106 37.328 274.049 38.832C273.026 40.336 271.89 41.088 270.642 41.088C270.034 41.088 269.17 40.928 268.05 40.608C266.93 40.256 266.13 40.08 265.65 40.08C265.17 40.08 264.786 40.144 264.498 40.272C264.21 40.368 263.89 40.528 263.538 40.752C262.994 41.072 262.61 41.232 262.386 41.232C262.194 41.232 261.89 40.992 261.474 40.512C261.058 40.032 260.85 39.712 260.85 39.552C260.85 39.36 260.866 39.232 260.898 39.168C264.13 33.664 267.074 29.776 269.73 27.504L266.37 27.024C266.05 26.8 265.506 26.816 264.738 27.072C263.97 27.328 263.506 27.536 263.346 27.696C263.218 27.824 263.074 27.856 262.914 27.792C262.754 27.728 262.658 27.616 262.626 27.456C262.594 27.296 262.642 27.152 262.77 27.024V27.072C263.122 26.784 263.634 26.464 264.306 26.112C264.978 25.76 265.426 25.584 265.65 25.584C265.906 25.584 266.082 25.584 266.178 25.584ZM285.218 26.352C285.954 26.352 286.642 26.784 287.282 27.648C287.954 28.48 288.29 29.328 288.29 30.192C288.29 31.024 287.97 31.872 287.33 32.736C286.722 33.6 285.938 34.048 284.978 34.08C284.53 34.08 283.73 33.84 282.578 33.36C281.458 32.848 280.674 32.4 280.226 32.016C279.234 34.512 279.506 36.816 281.042 38.928C281.65 39.76 282.322 40.176 283.058 40.176C283.794 40.176 284.61 39.872 285.506 39.264C286.402 38.624 286.962 38 287.186 37.392C287.442 36.784 287.73 36.496 288.05 36.528C288.242 36.56 288.338 36.672 288.338 36.864C288.338 37.056 288.274 37.312 288.146 37.632C287.73 38.752 287.09 39.712 286.226 40.512C285.394 41.312 284.466 41.712 283.442 41.712C281.874 41.68 280.578 41.136 279.554 40.08C278.562 39.056 277.858 37.696 277.442 36C277.442 33.888 277.954 31.92 278.978 30.096C280.034 28.272 281.522 27.072 283.442 26.496C283.89 26.4 284.482 26.352 285.218 26.352ZM285.17 32.736C285.65 32.736 286.05 32.448 286.37 31.872C286.722 31.296 286.898 30.736 286.898 30.192C286.898 29.648 286.674 29.104 286.226 28.56C285.81 28.016 285.426 27.744 285.074 27.744C284.722 27.744 284.322 27.856 283.874 28.08C282.434 28.496 281.346 29.504 280.61 31.104C280.642 31.104 280.722 31.184 280.85 31.344C281.01 31.472 281.65 31.744 282.77 32.16C283.89 32.544 284.69 32.736 285.17 32.736ZM290.926 36.768L290.974 35.232C290.974 29.6 290.59 26.64 289.822 26.352C289.566 26.288 289.438 26.16 289.438 25.968C289.438 25.744 289.502 25.568 289.63 25.44C289.758 25.312 289.918 25.28 290.11 25.344C290.686 25.536 291.23 26 291.742 26.736C292.574 28.016 293.07 29.776 293.23 32.016C294.254 28.336 295.31 25.52 296.398 23.568C297.806 21.2 299.31 20.016 300.91 20.016C301.934 20.048 302.782 20.608 303.454 21.696C304.126 22.752 304.462 23.904 304.462 25.152C304.462 26.4 303.998 27.984 303.07 29.904C302.142 31.792 301.102 32.736 299.95 32.736C299.438 32.736 298.958 32.288 298.51 31.392C298.094 30.464 297.886 29.584 297.886 28.752C297.886 27.888 298.19 26.88 298.798 25.728C298.894 25.536 299.022 25.44 299.182 25.44C299.374 25.44 299.518 25.52 299.614 25.68C299.71 25.808 299.662 26.048 299.47 26.4C299.31 26.752 299.23 27.664 299.23 29.136C299.23 30.576 299.454 31.296 299.902 31.296C300.766 31.296 301.39 30.592 301.774 29.184C302.158 27.776 302.35 26.304 302.35 24.768C302.35 23.2 302.19 22.208 301.87 21.792C301.614 21.472 301.278 21.312 300.862 21.312C298.686 21.312 296.494 25.072 294.286 32.592C294.126 33.2 294.03 34.064 293.998 35.184C293.998 36.272 293.95 37.072 293.854 37.584C293.95 38.384 293.998 39.216 293.998 40.08C293.998 40.944 293.838 41.712 293.518 42.384C293.102 43.312 292.558 43.776 291.886 43.776C291.566 43.776 291.31 43.616 291.118 43.296C290.926 43.008 290.83 42.704 290.83 42.384L291.022 41.184C291.278 40.8 291.326 40.16 291.166 39.264C291.006 38.24 290.926 37.408 290.926 36.768ZM309.906 20.592C309.906 21.232 309.746 21.776 309.426 22.224C309.106 22.64 308.674 22.848 308.13 22.848C307.298 22.848 306.882 22.048 306.882 20.448C306.882 19.872 306.978 19.488 307.17 19.296C307.394 19.104 307.794 19.008 308.37 19.008C309.394 19.008 309.906 19.536 309.906 20.592ZM312.594 42.864C312.594 43.312 312.274 43.808 311.634 44.352C311.026 44.928 310.386 45.216 309.714 45.216C309.074 45.216 308.322 44.736 307.458 43.776C306.594 42.816 306.162 41.76 306.162 40.608C306.162 39.456 306.242 38.432 306.402 37.536C306.562 36.608 306.674 35.744 306.738 34.944C306.834 34.144 306.914 33.552 306.978 33.168C307.042 32.784 307.042 32.352 306.978 31.872C306.946 31.36 306.93 31.024 306.93 30.864C306.93 30.704 306.93 30.432 306.93 30.048C306.93 29.632 306.834 29.2 306.642 28.752C306.322 28.432 306.258 28.032 306.45 27.552C306.642 27.04 306.994 26.784 307.506 26.784C307.538 26.784 307.554 26.768 307.554 26.736V26.688C307.65 26.688 307.746 26.688 307.842 26.688C309.058 26.688 309.666 27.76 309.666 29.904C309.666 31.632 309.49 33.168 309.138 34.512C308.434 36.976 308.082 39.12 308.082 40.944C308.082 41.648 308.258 42.384 308.61 43.152C308.994 43.92 309.458 44.304 310.002 44.304C310.226 44.304 310.626 43.984 311.202 43.344C311.81 42.736 312.194 42.432 312.354 42.432C312.514 42.432 312.594 42.56 312.594 42.816V42.864ZM320.167 25.008C323.143 25.008 324.631 26.048 324.631 28.128C324.631 28.864 324.391 29.504 323.911 30.048H323.959C324.279 30.88 324.439 31.76 324.439 32.688C324.439 33.616 324.263 34.576 323.911 35.568C324.327 37.744 324.999 39.904 325.927 42.048C325.991 42.176 326.023 42.32 326.023 42.48C326.023 42.672 325.943 42.864 325.783 43.056C325.623 43.28 325.479 43.392 325.351 43.392C325.095 43.392 324.791 43.056 324.439 42.384C324.087 41.744 323.783 40.848 323.527 39.696C323.271 38.512 323.079 37.744 322.951 37.392C321.383 39.664 319.847 40.8 318.343 40.8C318.279 40.8 318.231 40.8 318.199 40.8C316.599 40.8 315.335 40.304 314.407 39.312C313.479 38.288 313.015 37.104 313.015 35.76C313.015 34.416 313.095 33.232 313.255 32.208C313.447 31.184 313.767 30.096 314.215 28.944C314.663 27.792 315.367 26.864 316.327 26.16C317.351 25.392 318.631 25.008 320.167 25.008ZM323.671 28.368C323.671 26.704 322.647 25.872 320.599 25.872C319.063 25.872 317.799 26.624 316.807 28.128C315.847 29.632 315.367 31.264 315.367 33.024C315.367 34.752 315.623 36.208 316.135 37.392C316.679 38.544 317.543 39.12 318.727 39.12C319.495 39.12 320.199 38.832 320.839 38.256C321.831 37.36 322.327 36.624 322.327 36.048C322.327 35.472 322.231 34.64 322.039 33.552C321.847 32.464 321.751 31.728 321.751 31.344C321.751 30.928 321.831 30.56 321.991 30.24C321.735 29.792 321.543 29.504 321.415 29.376C321.319 29.216 321.367 29.072 321.559 28.944C321.783 28.784 321.975 28.8 322.135 28.992H322.087C322.311 29.312 322.535 29.488 322.759 29.52C322.887 29.456 322.999 29.424 323.095 29.424C323.479 29.04 323.671 28.688 323.671 28.368Z" fill="white"/>
<path d="M0 58H366.5" stroke="#008C45"/>
<path d="M0 2H366.5" stroke="#CD212A"/>
</svg>
